<svg id="Capa_1" data-name="Capa 1" xmlns="http://www.w3.org/2000/svg" viewBox="0 0 290 40"><defs><style>.cls-1{fill:#fff;}</style></defs><title>alprestamo white</title><path class="cls-1" d="M39.49,14.38V27.52a2.33,2.33,0,0,1-2.33,2.34h0a2.34,2.34,0,0,1-2.34-2.34V20.93a4.79,4.79,0,0,0-1.48-3.5,4.81,4.81,0,0,0-1.6-1.06,4.91,4.91,0,0,0-1.9-.37,4.76,4.76,0,0,0-1.93.39,5.28,5.28,0,0,0-1.58,1.06A4.57,4.57,0,0,0,25.24,19,4.92,4.92,0,0,0,24.85,21a4.63,4.63,0,0,0,.39,1.89,4.91,4.91,0,0,0,1.09,1.58,5.32,5.32,0,0,0,1.58,1.07,4.76,4.76,0,0,0,1.93.39,4.18,4.18,0,0,0,1.88-.39h0v.07l1.78,3.17,0,0a6.87,6.87,0,0,1-4.32,1.35,8.91,8.91,0,0,1-3.56-.71,9,9,0,0,1-2.92-2,9.42,9.42,0,0,1-2-2.92,9.14,9.14,0,0,1,0-7.16,9.59,9.59,0,0,1,2-2.93,9.23,9.23,0,0,1,2.92-2,8.76,8.76,0,0,1,3.56-.73,7.23,7.23,0,0,1,3.25.69,6.75,6.75,0,0,1,2.38,2v-.06A2.34,2.34,0,0,1,37.16,12h0A2.33,2.33,0,0,1,39.49,14.38Z"/><path class="cls-1" d="M46.73,4.91v25H42L42,4.91Z"/><path class="cls-1" d="M59.3,11.76a9.1,9.1,0,0,1,3.64.73,9.23,9.23,0,0,1,3,2,9.58,9.58,0,0,1,2,2.94,8.88,8.88,0,0,1,.73,3.6,9.18,9.18,0,0,1-.73,3.67,9.41,9.41,0,0,1-2,3,9.23,9.23,0,0,1-3,2,9.1,9.1,0,0,1-3.64.73A6.75,6.75,0,0,1,54.92,29v0l1.78-3.25,0,0a4.83,4.83,0,0,0,2,.42,5,5,0,0,0,2-.39,4.9,4.9,0,0,0,1.62-1.1A5.24,5.24,0,0,0,63.37,23a5.14,5.14,0,0,0,.39-2,4.92,4.92,0,0,0-.39-1.95,5.1,5.1,0,0,0-1.09-1.6,5.14,5.14,0,0,0-5.56-1.08,5.12,5.12,0,0,0-1.59,1.07,5,5,0,0,0-1.06,1.59,4.71,4.71,0,0,0-.4,1.94V34.58A2.4,2.4,0,0,1,51.27,37h0a2.41,2.41,0,0,1-2.41-2.41V14.44a2.41,2.41,0,0,1,2.4-2.4h0a2.4,2.4,0,0,1,2.4,2.4h0A6.49,6.49,0,0,1,59.3,11.76Z"/><path class="cls-1" d="M85,12.75l-.43.72-1.81,3.24,0,0A5,5,0,0,0,80.15,16a5.07,5.07,0,0,0-1.75.3,5,5,0,0,0-1.46.85,5.28,5.28,0,0,0-1.08,1.31,4.36,4.36,0,0,0-.59,1.6v9.8H70.42V12h4.85v2.32a6.38,6.38,0,0,1,5.52-2.6,9.16,9.16,0,0,1,4.13,1Z"/><path class="cls-1" d="M92.76,11.76a8.81,8.81,0,0,1,3.57.73,9.34,9.34,0,0,1,2.92,2,9.59,9.59,0,0,1,2,2.93A9,9,0,0,1,102,21a8.67,8.67,0,0,1-.22,2l0,.07h-9l-2.28-3.63h6.77A5.37,5.37,0,0,0,95.49,17a4.14,4.14,0,0,0-2.73-1,4.3,4.3,0,0,0-1.81.39A4.68,4.68,0,0,0,88.49,19a5.27,5.27,0,0,0-.36,2,4.94,4.94,0,0,0,.32,1.68,5.26,5.26,0,0,0,2.39,2.77,3.85,3.85,0,0,0,1.92.48,5.82,5.82,0,0,0,1.77-.26A3.3,3.3,0,0,0,96,24.44l0,0,.07,0,4.13,1.82-.07.07A8.85,8.85,0,0,1,97,29.14a9.29,9.29,0,0,1-10.74-1.67,9.42,9.42,0,0,1-2-2.92,9.14,9.14,0,0,1,0-7.16,9.59,9.59,0,0,1,2-2.93,9.2,9.2,0,0,1,2.94-2A9,9,0,0,1,92.76,11.76Z"/><path class="cls-1" d="M111.26,19.28c.78.26,1.5.52,2.15.8a7.29,7.29,0,0,1,1.72,1,3.91,3.91,0,0,1,1.55,3.28v0a5.29,5.29,0,0,1-1.8,4.24,7.58,7.58,0,0,1-5,1.53,11.73,11.73,0,0,1-4-.7,13.66,13.66,0,0,1-3.67-2l0,0,0,0,2.42-3.83,0,0a7.39,7.39,0,0,0,2.42,1.73,7.24,7.24,0,0,0,2.89.58q2.1,0,2.1-1.35a1,1,0,0,0-.67-1,13.15,13.15,0,0,0-1.61-.6,1.15,1.15,0,0,0-.34-.09,1.23,1.23,0,0,1-.34-.09c-.71-.19-1.42-.4-2.13-.62a7,7,0,0,1-1.93-.93,4.79,4.79,0,0,1-1.41-1.49,4.49,4.49,0,0,1-.55-2.33v-.07a5.42,5.42,0,0,1,.47-2.27,5,5,0,0,1,1.31-1.78,5.94,5.94,0,0,1,2.07-1.15,8.13,8.13,0,0,1,2.67-.41,12.29,12.29,0,0,1,3.46.51,11.86,11.86,0,0,1,3.24,1.52v.07l-2.17,3.95,0,0a5.77,5.77,0,0,0-2-1.3,6.89,6.89,0,0,0-2.56-.48l-.57,0a1.85,1.85,0,0,0-.59.18,1.49,1.49,0,0,0-.45.37,1.08,1.08,0,0,0-.17.66.79.79,0,0,0,.28.59,3,3,0,0,0,.73.5,10.58,10.58,0,0,0,1,.45l1.09.39.23,0Z"/><path class="cls-1" d="M125.41,23.77a1.89,1.89,0,0,0,.72,1.51,2.06,2.06,0,0,0,1.28.45h3.45v4.13H127.4a6.59,6.59,0,0,1-2.62-.52,6.67,6.67,0,0,1-2.14-1.42,7.23,7.23,0,0,1-1.44-2.12,6.33,6.33,0,0,1-.53-2.6V17.85H118.1v-4h2.57V12.18a4.74,4.74,0,0,1,4.74-4.74h0Zm5.45-9.88v4h-2.64l-2.21-4Z"/><path class="cls-1" d="M151.77,12V29.86h-4.66V20.93a4.6,4.6,0,0,0-.4-1.93,4.89,4.89,0,0,0-1.08-1.57A5,5,0,0,0,142.12,16a4.79,4.79,0,0,0-1.93.39,5.28,5.28,0,0,0-1.58,1.06A4.57,4.57,0,0,0,137.52,19a4.92,4.92,0,0,0-.39,1.95,4.63,4.63,0,0,0,.39,1.89,4.91,4.91,0,0,0,1.09,1.58,5.32,5.32,0,0,0,1.58,1.07,4.79,4.79,0,0,0,1.93.39,4.25,4.25,0,0,0,1.89-.39h0v.07l1.78,3.17,0,0a6.85,6.85,0,0,1-4.31,1.35,9,9,0,0,1-3.57-.71,9.15,9.15,0,0,1-2.92-2,9.42,9.42,0,0,1-2-2.92,9.14,9.14,0,0,1,0-7.16,9.59,9.59,0,0,1,2-2.93,9.34,9.34,0,0,1,2.92-2,8.81,8.81,0,0,1,3.57-.73,7.22,7.22,0,0,1,3.24.69,6.79,6.79,0,0,1,2.39,2V12Z"/><path class="cls-1" d="M154.27,12H159V29.86h-4.74Zm19.31-.28a5.62,5.62,0,0,1,2.83.66,5.46,5.46,0,0,1,1.88,1.72,7.54,7.54,0,0,1,1,2.41,11.7,11.7,0,0,1,.32,2.69V29.86H174.9l0-10.65a2.73,2.73,0,0,0-.22-1.07,2.94,2.94,0,0,0-.59-.89,2.71,2.71,0,0,0-.89-.63,2.65,2.65,0,0,0-1.08-.23,2.69,2.69,0,0,0-2,.84,2.73,2.73,0,0,0-.82,2V29.86H164.6V19.21a2.72,2.72,0,0,0-.21-1.07,2.83,2.83,0,0,0-.61-.89,2.56,2.56,0,0,0-.91-.61,3,3,0,0,0-1.15-.22,2,2,0,0,1-.32-.53c-.19-.35-.41-.74-.65-1.16s-.58-1.06-1-1.7l0-.07a5.36,5.36,0,0,1,3.38-1.2,5.52,5.52,0,0,1,3.25.88,6.1,6.1,0,0,1,1.92,2.19,3.82,3.82,0,0,1,.28-.42,7,7,0,0,1,2.27-2A5.55,5.55,0,0,1,173.58,11.76Z"/><path class="cls-1" d="M190.65,11.76a8.88,8.88,0,0,1,3.6.73,9.23,9.23,0,0,1,2.92,2,9.59,9.59,0,0,1,2,2.93,9,9,0,0,1,0,7.12,9.59,9.59,0,0,1-2,2.93,9.23,9.23,0,0,1-2.92,2,9.24,9.24,0,0,1-7.2,0,9.23,9.23,0,0,1-2.92-2,9.59,9.59,0,0,1-2-2.93,9,9,0,0,1,0-7.12,9.59,9.59,0,0,1,2-2.93,9.23,9.23,0,0,1,2.92-2A8.88,8.88,0,0,1,190.65,11.76Zm0,14.14a3.62,3.62,0,0,0,1.66-.39,4.25,4.25,0,0,0,1.35-1.09,5.38,5.38,0,0,0,.93-1.6,5.71,5.71,0,0,0,.34-2,5.51,5.51,0,0,0-.34-1.9,5,5,0,0,0-.93-1.57,4.56,4.56,0,0,0-1.35-1.05,3.62,3.62,0,0,0-1.66-.39,3.69,3.69,0,0,0-1.67.39,4.56,4.56,0,0,0-1.38,1.05,4.79,4.79,0,0,0-.92,1.57,5.28,5.28,0,0,0-.34,1.9,5.49,5.49,0,0,0,.34,2,5.15,5.15,0,0,0,.92,1.6A4.25,4.25,0,0,0,189,25.51,3.69,3.69,0,0,0,190.65,25.9Z"/><path class="cls-1" d="M204.51,24.55a2.71,2.71,0,0,1,2,.82,2.59,2.59,0,0,1,.78,2,2.69,2.69,0,0,1-.84,2,2.75,2.75,0,0,1-2,.82,2.79,2.79,0,0,1-2-.86,2.59,2.59,0,0,1-.78-2,2.67,2.67,0,0,1,.82-2A2.61,2.61,0,0,1,204.51,24.55Z"/><path class="cls-1" d="M222.47,23.05l3.85,2.53,0,0a9.12,9.12,0,0,1-7.94,4.56,8.88,8.88,0,0,1-3.6-.73,9.36,9.36,0,0,1-4.9-4.9,9.07,9.07,0,0,1,0-7.13,9.54,9.54,0,0,1,2-2.92,9.42,9.42,0,0,1,2.92-2,9,9,0,0,1,3.6-.73A9.17,9.17,0,0,1,222.92,13a9.08,9.08,0,0,1,3.36,3.35l0,0-3.88,2.53,0,0a5.1,5.1,0,0,0-1.66-2.13,3.85,3.85,0,0,0-2.4-.82,4,4,0,0,0-1.8.41,4.46,4.46,0,0,0-1.44,1.1,5.39,5.39,0,0,0-1,1.6,5.48,5.48,0,0,0-.35,1.95,5.24,5.24,0,0,0,.35,1.92,5,5,0,0,0,1,1.55,4.27,4.27,0,0,0,1.44,1,4.37,4.37,0,0,0,1.8.38,4.24,4.24,0,0,0,2.4-.73,4.58,4.58,0,0,0,1.66-2.05l0-.07Z"/><path class="cls-1" d="M236.62,11.76a8.88,8.88,0,0,1,3.6.73,9.34,9.34,0,0,1,2.92,2,9.59,9.59,0,0,1,2,2.93,9,9,0,0,1,0,7.12,9.59,9.59,0,0,1-2,2.93,9.34,9.34,0,0,1-2.92,2,9.24,9.24,0,0,1-7.2,0,9.23,9.23,0,0,1-2.92-2,9.41,9.41,0,0,1-2-2.93,9,9,0,0,1,0-7.12,9.41,9.41,0,0,1,2-2.93,9.23,9.23,0,0,1,2.92-2A8.88,8.88,0,0,1,236.62,11.76Zm0,14.14a3.65,3.65,0,0,0,1.66-.39,4.25,4.25,0,0,0,1.35-1.09,5.38,5.38,0,0,0,.93-1.6,5.71,5.71,0,0,0,.33-2,5.5,5.5,0,0,0-.33-1.9,5,5,0,0,0-.93-1.57,4.56,4.56,0,0,0-1.35-1.05,3.65,3.65,0,0,0-1.66-.39,3.73,3.73,0,0,0-1.68.39,4.52,4.52,0,0,0-1.37,1.05,5,5,0,0,0-.93,1.57,5.5,5.5,0,0,0-.33,1.9,5.71,5.71,0,0,0,.33,2,5.38,5.38,0,0,0,.93,1.6,4.21,4.21,0,0,0,1.37,1.09A3.73,3.73,0,0,0,236.62,25.9Z"/><path class="cls-1" d="M247.63,12h4.74V29.86h-4.74Zm19.31-.28a5.62,5.62,0,0,1,2.83.66,5.46,5.46,0,0,1,1.88,1.72,7.54,7.54,0,0,1,1,2.41,11.7,11.7,0,0,1,.32,2.69V29.86h-4.74l0-10.65a2.73,2.73,0,0,0-.22-1.07,2.94,2.94,0,0,0-.59-.89,2.71,2.71,0,0,0-.89-.63,2.65,2.65,0,0,0-1.08-.23,2.69,2.69,0,0,0-2,.84,2.73,2.73,0,0,0-.82,2V29.86H258V19.21a2.72,2.72,0,0,0-.21-1.07,2.83,2.83,0,0,0-.61-.89,2.56,2.56,0,0,0-.91-.61,3,3,0,0,0-1.15-.22,2,2,0,0,1-.32-.53c-.19-.35-.41-.74-.65-1.16s-.58-1.06-1-1.7l0-.07a5.36,5.36,0,0,1,3.38-1.2,5.52,5.52,0,0,1,3.25.88,6.1,6.1,0,0,1,1.92,2.19,3.82,3.82,0,0,1,.28-.42,7,7,0,0,1,2.27-2A5.55,5.55,0,0,1,266.94,11.76Z"/></svg>