<?xml version="1.0" encoding="utf-8"?>
<!-- Generator: Adobe Illustrator 24.3.0, SVG Export Plug-In . SVG Version: 6.00 Build 0)  -->
<svg version="1.1" id="Layer_1" xmlns="http://www.w3.org/2000/svg" xmlns:xlink="http://www.w3.org/1999/xlink" x="0px" y="0px"
	 viewBox="0 0 282.3 274.9" style="enable-background:new 0 0 282.3 274.9;" xml:space="preserve">
<style type="text/css">
	.st0{fill:#519DD6;}
	.st1{fill:#2EBEEF;}
	.st2{fill:#826C2B;}
	.st3{fill:#9D8234;}
	.st4{fill:#A1C96A;}
	.st5{fill:#8DC052;}
	.st6{fill:none;stroke:#FFFFFF;stroke-width:2;stroke-miterlimit:10;}
	.st7{opacity:0.5;fill:#FFFFFF;enable-background:new    ;}
	.st8{fill:#7C682B;}
	.st9{fill:#F5BA44;}
	.st10{fill:#FECD5A;}
	.circulo-ap{
		opacity: 1;
  animation-name: bounceIn;
  animation-duration: 1400ms;
  transition: transform 5s ease-in-out, opacity .5s ease-in-out;
  animation-timing-function: linear;
  animation-fill-mode: forwards;
  animation-iteration-count: infinite;
}
	@keyframes bounceIn{
0%, 20%, 50%, 80%, 100% {transform: translateY(0);} 
   40% {transform: translateY(-30px);} 
   60% {transform: translateY(-15px);} 
   }
.atras-ap{
  animation-name: bounceIn;
  animation-duration: 800ms;
  animation-timing-function: linear;
  animation-fill-mode: forwards;

	}
	.billete1{
		  animation-name: bounceIn;
  animation-duration: 1400ms;
  animation-timing-function: linear;
  animation-fill-mode: forwards;
  animation-iteration-count: infinite;
	}
	.billete2{
		  animation-name: bounceIn;
  animation-duration: 1500ms;
  animation-timing-function: linear;
  animation-fill-mode: forwards;
  animation-iteration-count: infinite;
	}
	.billete3{
		  animation-name: bounceIn;
  animation-duration: 1600ms;
  animation-timing-function: linear;
  animation-fill-mode: forwards;
  animation-iteration-count: infinite;
	}
	.billetera{
	  animation-name: bounceIn;
  animation-duration: 500ms;
  animation-timing-function: linear;
  animation-fill-mode: forwards;
	}
	.costura{
	 animation-name: bounceIn;
  animation-duration: 500ms;
  animation-timing-function: linear;
  animation-fill-mode: forwards;
	}
    .logo-billetera-ap{
     animation-name: bounceIn;
  animation-duration: 900ms;
  animation-timing-function: linear;
  animation-fill-mode: forwards;
    }
	.evilla{
	 animation-name: bounceIn;
  animation-duration: 500ms;
  animation-timing-function: linear;
  animation-fill-mode: forwards;
	}	
	.boton{
	 animation-name: bounceIn;
  animation-duration: 500ms;
  animation-timing-function: linear;
  animation-fill-mode: forwards;
	}
</style>
<circle class="st0 circulo-ap" cx="141.6" cy="139.2" r="135.3"/>
<g>
	<g>
		<path class="st1" d="M80.3,115.8"/>
		<rect x="70.3" y="115" class="st2 atras-ap" width="32.2" height="14.5"/>
		<path class="st3 atras-ap" d="M67.4,119.8c0,0,0.8-9.2,11.2-9.2c10.5,0,20.2,0,20.2,0v5.2c-4.1,0-8.3,0-12.4,0c-2.9,0-5.8,0-8.7,0.3
			c-2.4,0.2-4.8,2.1-4.7,4.7c0.1,1.5,1.1,2.9,2.5,3.6c1.7,0.8,3.8,0.5,5.6,0.6c0.4,0,1.5,0,1.6,0.5c0.5,1.7-6.1,5.2-6.1,6.9
			c0,1.1,0,2.1,0,3.2c-2.8,0-9.2,0-9.2,0L67.4,119.8L67.4,119.8z"/>
	</g>
	<g>
		<g>
			
				<rect x="54.4" y="94.1" transform="matrix(0.2052 -0.9787 0.9787 0.2052 -30.8855 221.1894)" class="st4" width="132.8" height="71"/>
			<path class="st5 billete1" d="M103.7,72.9l-20.9,99.7c3.9,2.6,6.6,6.6,7.6,11.2l37.4,7.8c2.7-3.8,6.8-6.4,11.5-7.2l20.6-98.2
				c-3.2-2.6-5.4-6.2-6.2-10.2l-40.5-8.5C110.6,70.2,107.3,72.1,103.7,72.9z M141.5,134c-2.3,11.2-13.3,18.3-24.5,16
				c-11.2-2.3-18.3-13.3-16-24.5c2.3-11.2,13.3-18.3,24.5-16C136.7,111.8,143.8,122.8,141.5,134z"/>
		</g>
		<g>
			
				<rect x="75.3" y="88" transform="matrix(0.4797 -0.8774 0.8774 0.4797 -34.6787 188.5892)" class="st4" width="132.8" height="71"/>
			<path class="st5 billete2" d="M141.8,64.3l-48.9,89.4c3,3.6,4.4,8.3,4,13l33.5,18.3c3.7-2.9,8.4-4.2,13.1-3.6l48.1-88
				c-2.3-3.4-3.4-7.5-3-11.6l-36.3-19.8C149.2,63.7,145.5,64.6,141.8,64.3z M160.3,133.7c-5.5,10-18,13.7-28.1,8.2
				c-10-5.5-13.7-18-8.2-28.1c5.5-10,18-13.7,28.1-8.2C162.1,111.1,165.8,123.7,160.3,133.7z"/>
		</g>
		<g>
			
				<rect x="96.4" y="94" transform="matrix(0.6996 -0.7145 0.7145 0.6996 -43.6491 155.2448)" class="st4" width="132.8" height="71"/>
			<path class="st5 billete3" d="M179,72.5l-71.3,72.8c1.9,4.3,2,9.2,0.4,13.5l27.3,26.8c4.3-1.8,9.2-1.7,13.6,0.1l70.2-71.7
				c-1.3-3.9-1.2-8.1,0.3-12l-29.5-28.9C186.3,74,182.5,73.9,179,72.5z M178,144.4c-8,8.2-21.1,8.3-29.3,0.3
				c-8.2-8-8.3-21.1-0.3-29.3c8-8.2,21.1-8.3,29.3-0.3C185.8,123.1,186,136.2,178,144.4z"/>
		</g>
	</g>
	<g>
		<path class="st3 billetera" d="M198,221.1H76.1c-4.8,0-8.7-3.9-8.7-8.7v-78.6c0-4.8,3.9-8.7,8.7-8.7H198c4.8,0,8.7,3.9,8.7,8.7v78.6
			C206.7,217.2,202.8,221.1,198,221.1z"/>
		<g>
			<line class="st6 costura" x1="82.8" y1="135.3" x2="97.1" y2="135.3"/>
			<line class="st6 costura" x1="105.7" y1="135.3" x2="120" y2="135.3"/>
			<line class="st6 costura" x1="128.7" y1="135.3" x2="143" y2="135.3"/>
			<line class="st6 costura" x1="151.7" y1="135.3" x2="166" y2="135.3"/>
			<line class="st6 costura" x1="174.7" y1="135.3" x2="189" y2="135.3"/>
		</g>
		<g>
			<line class="st6 costura" x1="82.8" y1="208.5" x2="97.1" y2="208.5"/>
			<line class="st6 costura" x1="105.7" y1="208.5" x2="120" y2="208.5"/>
			<line class="st6 costura" x1="128.7" y1="208.5" x2="143" y2="208.5"/>
			<line class="st6 costura" x1="151.7" y1="208.5" x2="166" y2="208.5"/>
			<line class="st6 costura" x1="174.7" y1="208.5" x2="189" y2="208.5"/>
		</g>
		<path class="st7 logo-billetera-ap" d="M153.5,155.9c0,10.7,0,21.4,0,32c-1.5,4.5-4.5,7.3-9.1,8.4c-10.4,0-20.9,0-31.3,0c-1-0.4-2.1-0.7-3.2-1.2
			c-3.3-1.5-4.9-4.4-6-7.6c0-10.3,0-20.6,0-30.9c0.7-1.6,1.3-3.3,2.2-4.7c1.5-2.6,4.3-3.4,7-4.4c10.4,0,20.9,0,31.3,0
			C148.9,148.6,152,151.4,153.5,155.9z M129.7,184.5c-0.6-1.2-1.4-2.4-2-3.6c-0.5-1-1-1.3-2.2-1.1c-5.3,0.9-9.8-3-9.4-8
			c0.3-4,3.7-7.2,7.8-7.1c4.2,0,7.5,3.2,7.6,7.5c0.1,3.5,0,7.1,0.1,10.7c0,2.1,1.7,3.6,3.7,3.6c2,0,3.7-1.5,3.7-3.6c0.1-7,0-14,0-21
			c0-1.7-1-2.9-2.6-3.4c-1.7-0.5-3.1,0-4.2,1.5c-0.3,0.5-0.6,1-0.9,1.6c-5.3-5.8-14.1-4.1-18.7,0.5c-5.6,5.7-5.8,14.4-0.3,20.3
			C117,187.3,125.2,188.4,129.7,184.5z M145.9,177.1c-2.2,0-3.9,1.6-4,3.8c0,2.1,1.7,3.9,3.8,3.9c2,0,3.8-1.7,3.9-3.7
			C149.8,179,148,177.2,145.9,177.1z"/>
	</g>
	<g>
		<path class="st8 evilla" d="M206.6,158.3h-34.3c-1,0-2,0.5-2.6,1.4l-8.7,12.6c-0.8,1.1-0.8,2.5,0,3.6l8.7,12.6c0.6,0.9,1.6,1.4,2.6,1.4
			h34.3c1.8,0,3.2-1.4,3.2-3.2v-25.1C209.8,159.7,208.4,158.3,206.6,158.3z"/>
		<path class="st3 evilla" d="M206.6,156.3h-34.3c-1,0-2,0.5-2.6,1.4l-8.7,12.6c-0.8,1.1-0.8,2.5,0,3.6l8.7,12.6c0.6,0.9,1.6,1.4,2.6,1.4
			h34.3c1.8,0,3.2-1.4,3.2-3.2v-25.1C209.8,157.7,208.4,156.3,206.6,156.3z"/>
		<g>
			<path class="st9 boton" d="M185.8,171.4c0,4.2-2,8.9-7.6,8.9s-7.6-4.7-7.6-8.9c0-4.2,3.4-7,7.6-7S185.8,167.2,185.8,171.4z"/>
			<circle class="st10 boton" cx="178.2" cy="171.4" r="7.6"/>
		</g>
	</g>
</g>
</svg>
